<?xml version="1.0" encoding="utf-8"?>
<!-- Generator: Adobe Illustrator 21.0.0, SVG Export Plug-In . SVG Version: 6.00 Build 0)  -->
<svg version="1.1" id="图层_1" xmlns="http://www.w3.org/2000/svg" xmlns:xlink="http://www.w3.org/1999/xlink" x="0px" y="0px"
	 viewBox="0 0 32 32" style="enable-background:new 0 0 32 32;" xml:space="preserve">
<style type="text/css">
	.st0{fill:#CCCCCC;}
</style>
<title>拼团说明-抽奖-填充</title>
<desc>Created with Sketch.</desc>
<g id="拼团说明-抽奖-填充">
	<path id="Shape" class="st0" d="M16.9,15V9.3c-0.3,0-0.5-0.1-0.8-0.1h-0.1h0.1c-0.3,0.1-0.7,0.1-1,0.1v5.7H4v-4.6
		c0-0.7,0.5-1.3,1.2-1.3h5c-1.4-0.3-2.4-0.9-2.4-2c-0.1-1.3,1.4-3.4,3.5-3c2.1,0.5,3.6,2.3,4.8,3.8c1.2-1.5,2.8-3.6,5-3.9
		c1.9-0.2,3.4,1.8,3.2,3c-0.2,1.2-1.2,1.8-2.5,2.1h5c0.7,0,1.2,0.6,1.2,1.3V15H16.9z M11.5,5.1c-1.1-0.4-1.7,0.1-2.2,0.7
		C9.1,6.2,8.8,6.8,9.2,7.2c1,1,3.9,0.9,5.8,0.7C14.1,6.9,13,5.7,11.5,5.1z M22.8,7.2c0.7-0.9-0.7-2.7-2.3-2C19,5.8,17.9,6.9,17,7.9
		C17.8,8,18.6,8,19.4,8C20.4,7.9,22.2,7.8,22.8,7.2z M15,28H6.2C5.5,28,5,27.5,5,26.9V16h10V28z M25.8,28H17V16h10v10.9
		C27,27.5,26.5,28,25.8,28z"/>
</g>
</svg>
