<?xml version="1.0" encoding="utf-8"?>
<!-- Generator: Adobe Illustrator 21.0.0, SVG Export Plug-In . SVG Version: 6.00 Build 0)  -->
<svg version="1.1" id="图层_1" xmlns="http://www.w3.org/2000/svg" xmlns:xlink="http://www.w3.org/1999/xlink" x="0px" y="0px"
	 viewBox="0 0 32 32" style="enable-background:new 0 0 32 32;" xml:space="preserve">
<style type="text/css">
	.st0{fill:#CCCCCC;}
	.st1{fill:#FFFFFF;}
</style>
<title>拼团说明-开团-填充</title>
<desc>Created with Sketch.</desc>
<g id="拼团说明-开团-填充">
	<g id="拼团说明-开团" transform="translate(4.000000, 4.000000)">
		<path id="Combined-Shape" class="st0" d="M4.3,0h15.3c1.6,0,3,1.3,3.1,3L24,20.5c0.1,1.8-1.2,3.3-2.9,3.5c-0.1,0-0.1,0-0.2,0H3.1
			C1.4,24,0,22.6,0,20.8c0-0.1,0-0.2,0-0.2L1.2,3C1.3,1.3,2.7,0,4.3,0z"/>
		<path id="Shape" class="st1" d="M12,12c-0.3,0-0.7,0-1-0.2C8.2,11.3,6,9,6,6.2C6.2,5.5,6.7,5,7.3,5s1.2,0.5,1.2,1.2
			C8.5,8,10,9.5,12,9.5h0.2c0.8,0,1.7-0.3,2.2-0.8C15,8,15.5,7.2,15.5,6.2C15.5,5.5,16,5,16.7,5C17.3,5,18,5.5,18,6.2
			c0,2.5-1.7,4.5-3.8,5.3C13.5,11.8,12.8,12,12,12z"/>
	</g>
</g>
</svg>
