<?xml version="1.0" encoding="utf-8"?>
<!-- Generator: Adobe Illustrator 21.0.0, SVG Export Plug-In . SVG Version: 6.00 Build 0)  -->
<svg version="1.1" id="图层_1" xmlns="http://www.w3.org/2000/svg" xmlns:xlink="http://www.w3.org/1999/xlink" x="0px" y="0px"
	 viewBox="0 0 32 32" style="enable-background:new 0 0 32 32;" xml:space="preserve">
<style type="text/css">
	.st0{fill:#CCCCCC;}
</style>
<title>拼团说明-人满-填充</title>
<desc>Created with Sketch.</desc>
<g id="拼团说明-人满-填充">
	<path id="Shape" class="st0" d="M20.7,22.7v-1.3c1.7-1,3.1-3.4,3.1-5.8c0-3.9,0-7-4.7-7s-4.7,3.1-4.7,7c0,2.4,1.4,4.8,3.1,5.8v1.3
		c-5.3,0.4-9.3,3-9.3,6.2H30C30,25.8,25.9,23.2,20.7,22.7z M10,23.3c1.3-0.9,3-1.5,4.9-2c-0.4-0.4-0.7-0.9-1-1.4
		c-0.7-1.3-1.1-2.8-1.1-4.3c0-2.1,0-4.1,0.7-5.7c0.7-1.6,2-2.5,3.9-2.9C16.9,5.2,15.8,4,12.9,4c-4.7,0-4.7,3.1-4.7,7
		c0,2.4,1.4,4.8,3.1,5.8v1.3c-5.3,0.4-9.3,3-9.3,6.2h6.8C9.1,23.9,9.5,23.6,10,23.3z"/>
</g>
</svg>
